<svg xmlns="http://www.w3.org/2000/svg" width="24" height="24" viewBox="0 0 24 24">
	<rect id="backgroundrect" width="100%" height="100%" x="0" y="0" fill="none" stroke="none"/>
	<g class="currentLayer" style="">
		<title>Layer 1</title><path fill="none" d="M0,0 h24 v24 H0 z" id="svg_1" class=""/>
		<path d="M13,3 h-2 v10 h2 V3 zm4.83,2.17 l-1.42,1.42 C17.99,7.86 19,9.81 19,12 c0,3.87 -3.13,7 -7,7 s-7,-3.13 -7,-7 c0,-2.19 1.01,-4.14 2.58,-5.42 L6.17,5.17 C4.23,6.82 3,9.26 3,12 c0,4.97 4.03,9 9,9 s9,-4.03 9,-9 c0,-2.74 -1.23,-5.18 -3.17,-6.83 z" id="svg_2" class=""/><path fill="#ffffff" fill-opacity="1" stroke="#ffffff" stroke-opacity="1" stroke-width="1" stroke-dasharray="none" stroke-linejoin="miter" stroke-linecap="butt" stroke-dashoffset="" fill-rule="nonzero" opacity="1" marker-start="" marker-mid="" marker-end="" d="M2.7755107139142154,2.3673476508381412 L21.469388264934622,21.224490507980995 " class="" id="svg_6"/><path fill="none" fill-opacity="1" stroke="#000000" stroke-opacity="1" stroke-width="1" stroke-dasharray="none" stroke-linejoin="miter" stroke-linecap="butt" stroke-dashoffset="" fill-rule="nonzero" opacity="1" marker-start="" marker-mid="" marker-end="" d="M2.2040816326530575,2.938775510204082L20.897959183673464,21.795918367346935" id="svg_3" class=""/>
	</g>
</svg>