<svg xmlns="http://www.w3.org/2000/svg" width="24" height="24" viewBox="0 0 24 24">
	<rect id="backgroundrect" width="100%" height="100%" x="0" y="0" fill="none" stroke="none"/>
	<g class="currentLayer" style=""><title>Layer 1</title><path fill="none" d="M0 0h24v24H0V0z" id="svg_1"/>
		<path opacity="0.87" d="M8 5h2v3H8zm0 7h2v5H8zm-2 8h12v-9.02H6V20zm2-8h2v5H8v-5zM6 9h12V4H6v5zm2-4h2v3H8V5z" id="svg_2" class="selected" fill="#0097f8" fill-opacity="1"/>
		<path d="M18 2.01L6 2c-1.1 0-2 .89-2 2v16c0 1.1.9 2 2 2h12c1.1 0 2-.9 2-2V4c0-1.11-.9-1.99-2-1.99zM18 20H6v-9.02h12V20zm0-11H6V4h12v5zM8 5h2v3H8zm0 7h2v5H8z"/>
	</g>
</svg>